<svg width="35" height="35" viewBox="0 0 35 35" fill="none" xmlns="http://www.w3.org/2000/svg">
<path d="M17.7062 0C8.17025 0 0.412109 7.37077 0.412109 16.4295C0.412109 20.8308 2.29371 25.0558 5.60034 28.1411V32.852C5.60034 34.1404 6.9562 34.9792 8.10799 34.4033L12.6546 32.1308C14.3149 32.6133 16.0114 32.8589 17.7062 32.8589C27.2422 32.8589 35.0003 25.4881 35.0003 16.4295C35.0003 7.37077 27.2422 0 17.7062 0Z" fill="url(#paint0_linear)"/>
<path fill-rule="evenodd" clip-rule="evenodd" d="M21.3947 6.71187C21.457 6.17122 21.908 5.76465 22.4443 5.76465H23.0176C23.554 5.76465 24.0039 6.17122 24.0652 6.71187L24.1085 7.08825C24.6195 7.26808 25.0813 7.54161 25.4819 7.89328L25.8262 7.74064C26.3183 7.52545 26.8923 7.71705 27.1604 8.18811L27.4471 8.69204C27.7153 9.1631 27.5912 9.76234 27.1604 10.0867L26.8717 10.3042C26.9218 10.5679 26.9542 10.8391 26.9542 11.1176C26.9542 11.3961 26.9218 11.6673 26.8717 11.931L27.1604 12.1484C27.5902 12.4728 27.7142 13.0721 27.4471 13.5431L27.1604 14.045C26.8923 14.516 26.3183 14.7076 25.8262 14.4925L25.4819 14.3419C25.0818 14.6931 24.6208 14.9671 24.1105 15.1469L24.0672 15.5233C24.0049 16.064 23.554 16.4705 23.0176 16.4705H22.4443C21.908 16.4705 21.458 16.064 21.3968 15.5233L21.3534 15.1469C20.8424 14.9671 20.3806 14.6936 19.9801 14.3419L19.6357 14.4945C19.1437 14.7097 18.5697 14.5181 18.3015 14.0471L18.0148 13.5431C17.7467 13.0721 17.8707 12.4728 18.3015 12.1484L18.5902 11.931C18.5401 11.6673 18.5077 11.3961 18.5077 11.1176C18.5077 10.8391 18.5401 10.5679 18.5902 10.3042L18.3015 10.0867C17.8718 9.76234 17.7477 9.1631 18.0148 8.69204L18.3015 8.1902C18.5697 7.71914 19.1437 7.52754 19.6357 7.74273L19.9801 7.89328C20.3801 7.54204 20.8411 7.26809 21.3514 7.08825L21.3947 6.71187ZM24.5786 11.1176C24.5786 10.0834 23.7509 9.24406 22.731 9.24406C21.711 9.24406 20.8833 10.0834 20.8833 11.1176C20.8833 12.1528 21.711 12.9911 22.731 12.9911C23.7509 12.9911 24.5786 12.1528 24.5786 11.1176ZM12.942 13.2588C12.4056 13.2588 11.9546 13.6653 11.8923 14.206L11.7913 15.0905C10.9394 15.3362 10.1694 15.7756 9.55179 16.3848L8.76199 16.0398C8.26998 15.8246 7.69596 16.0162 7.42778 16.4873L7.14115 16.9891C6.87402 17.4602 6.99807 18.0594 7.42778 18.3838L8.12685 18.9107C8.02214 19.3312 7.94951 19.7642 7.94951 20.2176C7.94951 20.671 8.02214 21.104 8.12685 21.5245L7.42778 22.0514C6.99701 22.3758 6.87297 22.975 7.14115 23.4461L7.42778 23.9479C7.69596 24.419 8.26998 24.6106 8.76199 24.3954L9.55179 24.0504C10.1694 24.6596 10.9394 25.099 11.7913 25.3447L11.8944 26.2292C11.9556 26.7698 12.4056 27.1764 12.942 27.1764H13.5152C14.0516 27.1764 14.5026 26.7698 14.5649 26.2292L14.6659 25.3447C15.5178 25.099 16.2878 24.6596 16.9054 24.0504L17.6952 24.3954C18.1872 24.6106 18.7612 24.419 19.0294 23.9479L19.3161 23.4461C19.5832 22.975 19.4591 22.3758 19.0294 22.0514L18.3303 21.5245C18.4351 21.104 18.5077 20.671 18.5077 20.2176C18.5077 19.7642 18.4351 19.3312 18.3303 18.9107L19.0294 18.3838C19.4602 18.0594 19.5842 17.4602 19.3161 16.9891L19.0294 16.4873C18.7612 16.0162 18.1872 15.8246 17.6952 16.0398L16.9054 16.3848C16.2878 15.7756 15.5178 15.3362 14.6659 15.0905L14.5628 14.206C14.5016 13.6653 14.0516 13.2588 13.5152 13.2588H12.942ZM15.3402 20.2176C15.3402 19.0346 14.3953 18.0764 13.2286 18.0764C12.0619 18.0764 11.117 19.0346 11.117 20.2176C11.117 21.4006 12.0619 22.3588 13.2286 22.3588C14.3953 22.3588 15.3402 21.4006 15.3402 20.2176Z" fill="white"/>
<defs>
<linearGradient id="paint0_linear" x1="9.6701" y1="-24.7193" x2="-7.62402" y2="25.9412" gradientUnits="userSpaceOnUse">
<stop stop-color="#FAD961"/>
<stop offset="1" stop-color="#F76B1C"/>
</linearGradient>
</defs>
</svg>
